<?xml version="1.0" encoding="UTF-8"?>
<svg xmlns="http://www.w3.org/2000/svg" xmlns:xlink="http://www.w3.org/1999/xlink" width="3873" height="3873" viewBox="0 0 3873 3873">
<defs>
<clipPath id="clip-0">
<path clip-rule="evenodd" d="M 756.398438 0 L 3116.5 0 C 3534.300781 0 3873 338.699219 3873 756.398438 L 3873 3116.5 C 3873 3534.300781 3534.300781 3872.898438 3116.601562 3872.898438 L 756.398438 3872.898438 C 338.699219 3873 0 3534.300781 0 3116.5 L 0 756.398438 C 0 338.699219 338.699219 0 756.398438 0 "/>
</clipPath>
<linearGradient id="linear-pattern-0" gradientUnits="userSpaceOnUse" x1="-0.194443" y1="0" x2="1.194448" y2="0" gradientTransform="matrix(2788.55, 2788.56, -2788.56, 2788.55, 542.221, 542.21)">
<stop offset="0" stop-color="rgb(55.293274%, 82.743835%, 91.763306%)" stop-opacity="1"/>
<stop offset="0.125" stop-color="rgb(55.293274%, 82.743835%, 91.763306%)" stop-opacity="1"/>
<stop offset="0.140625" stop-color="rgb(55.278015%, 82.725525%, 91.758728%)" stop-opacity="1"/>
<stop offset="0.144531" stop-color="rgb(55.06897%, 82.476807%, 91.702271%)" stop-opacity="1"/>
<stop offset="0.148438" stop-color="rgb(54.875183%, 82.247925%, 91.648865%)" stop-opacity="1"/>
<stop offset="0.152344" stop-color="rgb(54.681396%, 82.017517%, 91.595459%)" stop-opacity="1"/>
<stop offset="0.15625" stop-color="rgb(54.48761%, 81.788635%, 91.542053%)" stop-opacity="1"/>
<stop offset="0.160156" stop-color="rgb(54.293823%, 81.558228%, 91.488647%)" stop-opacity="1"/>
<stop offset="0.164062" stop-color="rgb(54.100037%, 81.329346%, 91.436768%)" stop-opacity="1"/>
<stop offset="0.167969" stop-color="rgb(53.90625%, 81.098938%, 91.383362%)" stop-opacity="1"/>
<stop offset="0.171875" stop-color="rgb(53.713989%, 80.86853%, 91.329956%)" stop-opacity="1"/>
<stop offset="0.175781" stop-color="rgb(53.520203%, 80.638123%, 91.27655%)" stop-opacity="1"/>
<stop offset="0.179687" stop-color="rgb(53.326416%, 80.409241%, 91.223145%)" stop-opacity="1"/>
<stop offset="0.183594" stop-color="rgb(53.132629%, 80.178833%, 91.169739%)" stop-opacity="1"/>
<stop offset="0.1875" stop-color="rgb(52.938843%, 79.949951%, 91.117859%)" stop-opacity="1"/>
<stop offset="0.191406" stop-color="rgb(52.745056%, 79.719543%, 91.064453%)" stop-opacity="1"/>
<stop offset="0.195312" stop-color="rgb(52.55127%, 79.490662%, 91.011047%)" stop-opacity="1"/>
<stop offset="0.199219" stop-color="rgb(52.357483%, 79.260254%, 90.957642%)" stop-opacity="1"/>
<stop offset="0.203125" stop-color="rgb(52.165222%, 79.031372%, 90.904236%)" stop-opacity="1"/>
<stop offset="0.207031" stop-color="rgb(51.971436%, 78.800964%, 90.85083%)" stop-opacity="1"/>
<stop offset="0.210937" stop-color="rgb(51.777649%, 78.572083%, 90.797424%)" stop-opacity="1"/>
<stop offset="0.214844" stop-color="rgb(51.583862%, 78.341675%, 90.744019%)" stop-opacity="1"/>
<stop offset="0.21875" stop-color="rgb(51.390076%, 78.111267%, 90.692139%)" stop-opacity="1"/>
<stop offset="0.222656" stop-color="rgb(51.196289%, 77.880859%, 90.638733%)" stop-opacity="1"/>
<stop offset="0.226562" stop-color="rgb(51.002502%, 77.651978%, 90.585327%)" stop-opacity="1"/>
<stop offset="0.230469" stop-color="rgb(50.808716%, 77.42157%, 90.531921%)" stop-opacity="1"/>
<stop offset="0.234375" stop-color="rgb(50.614929%, 77.192688%, 90.478516%)" stop-opacity="1"/>
<stop offset="0.238281" stop-color="rgb(50.421143%, 76.96228%, 90.42511%)" stop-opacity="1"/>
<stop offset="0.242187" stop-color="rgb(50.228882%, 76.733398%, 90.37323%)" stop-opacity="1"/>
<stop offset="0.246094" stop-color="rgb(50.035095%, 76.502991%, 90.319824%)" stop-opacity="1"/>
<stop offset="0.25" stop-color="rgb(49.841309%, 76.274109%, 90.266418%)" stop-opacity="1"/>
<stop offset="0.253906" stop-color="rgb(49.647522%, 76.043701%, 90.213013%)" stop-opacity="1"/>
<stop offset="0.257812" stop-color="rgb(49.453735%, 75.814819%, 90.159607%)" stop-opacity="1"/>
<stop offset="0.261719" stop-color="rgb(49.259949%, 75.584412%, 90.106201%)" stop-opacity="1"/>
<stop offset="0.265625" stop-color="rgb(49.066162%, 75.354004%, 90.052795%)" stop-opacity="1"/>
<stop offset="0.269531" stop-color="rgb(48.872375%, 75.123596%, 89.99939%)" stop-opacity="1"/>
<stop offset="0.273438" stop-color="rgb(48.680115%, 74.894714%, 89.94751%)" stop-opacity="1"/>
<stop offset="0.277344" stop-color="rgb(48.486328%, 74.664307%, 89.894104%)" stop-opacity="1"/>
<stop offset="0.28125" stop-color="rgb(48.292542%, 74.435425%, 89.840698%)" stop-opacity="1"/>
<stop offset="0.285156" stop-color="rgb(48.098755%, 74.205017%, 89.787292%)" stop-opacity="1"/>
<stop offset="0.289062" stop-color="rgb(47.904968%, 73.976135%, 89.733887%)" stop-opacity="1"/>
<stop offset="0.292969" stop-color="rgb(47.711182%, 73.745728%, 89.680481%)" stop-opacity="1"/>
<stop offset="0.296875" stop-color="rgb(47.517395%, 73.516846%, 89.627075%)" stop-opacity="1"/>
<stop offset="0.300781" stop-color="rgb(47.323608%, 73.286438%, 89.573669%)" stop-opacity="1"/>
<stop offset="0.304688" stop-color="rgb(47.131348%, 73.05603%, 89.52179%)" stop-opacity="1"/>
<stop offset="0.308594" stop-color="rgb(46.937561%, 72.825623%, 89.468384%)" stop-opacity="1"/>
<stop offset="0.3125" stop-color="rgb(46.743774%, 72.596741%, 89.414978%)" stop-opacity="1"/>
<stop offset="0.316406" stop-color="rgb(46.549988%, 72.366333%, 89.361572%)" stop-opacity="1"/>
<stop offset="0.320312" stop-color="rgb(46.356201%, 72.137451%, 89.308167%)" stop-opacity="1"/>
<stop offset="0.324219" stop-color="rgb(46.162415%, 71.907043%, 89.254761%)" stop-opacity="1"/>
<stop offset="0.328125" stop-color="rgb(45.968628%, 71.678162%, 89.202881%)" stop-opacity="1"/>
<stop offset="0.332031" stop-color="rgb(45.774841%, 71.447754%, 89.149475%)" stop-opacity="1"/>
<stop offset="0.335937" stop-color="rgb(45.581055%, 71.218872%, 89.096069%)" stop-opacity="1"/>
<stop offset="0.339844" stop-color="rgb(45.387268%, 70.988464%, 89.042664%)" stop-opacity="1"/>
<stop offset="0.34375" stop-color="rgb(45.195007%, 70.759583%, 88.989258%)" stop-opacity="1"/>
<stop offset="0.347656" stop-color="rgb(45.001221%, 70.529175%, 88.935852%)" stop-opacity="1"/>
<stop offset="0.351562" stop-color="rgb(44.807434%, 70.298767%, 88.882446%)" stop-opacity="1"/>
<stop offset="0.355469" stop-color="rgb(44.613647%, 70.068359%, 88.829041%)" stop-opacity="1"/>
<stop offset="0.359375" stop-color="rgb(44.419861%, 69.839478%, 88.777161%)" stop-opacity="1"/>
<stop offset="0.363281" stop-color="rgb(44.226074%, 69.60907%, 88.723755%)" stop-opacity="1"/>
<stop offset="0.367188" stop-color="rgb(44.032288%, 69.380188%, 88.670349%)" stop-opacity="1"/>
<stop offset="0.371094" stop-color="rgb(43.838501%, 69.14978%, 88.616943%)" stop-opacity="1"/>
<stop offset="0.375" stop-color="rgb(43.64624%, 68.920898%, 88.563538%)" stop-opacity="1"/>
<stop offset="0.378906" stop-color="rgb(43.452454%, 68.690491%, 88.510132%)" stop-opacity="1"/>
<stop offset="0.382812" stop-color="rgb(43.258667%, 68.461609%, 88.458252%)" stop-opacity="1"/>
<stop offset="0.386719" stop-color="rgb(43.06488%, 68.231201%, 88.404846%)" stop-opacity="1"/>
<stop offset="0.390625" stop-color="rgb(42.871094%, 68.002319%, 88.35144%)" stop-opacity="1"/>
<stop offset="0.394531" stop-color="rgb(42.677307%, 67.771912%, 88.298035%)" stop-opacity="1"/>
<stop offset="0.398437" stop-color="rgb(42.483521%, 67.541504%, 88.244629%)" stop-opacity="1"/>
<stop offset="0.402344" stop-color="rgb(42.289734%, 67.311096%, 88.191223%)" stop-opacity="1"/>
<stop offset="0.40625" stop-color="rgb(42.097473%, 67.082214%, 88.137817%)" stop-opacity="1"/>
<stop offset="0.410156" stop-color="rgb(41.903687%, 66.851807%, 88.084412%)" stop-opacity="1"/>
<stop offset="0.414062" stop-color="rgb(41.7099%, 66.622925%, 88.032532%)" stop-opacity="1"/>
<stop offset="0.417969" stop-color="rgb(41.516113%, 66.392517%, 87.979126%)" stop-opacity="1"/>
<stop offset="0.421875" stop-color="rgb(41.322327%, 66.163635%, 87.92572%)" stop-opacity="1"/>
<stop offset="0.425781" stop-color="rgb(41.12854%, 65.933228%, 87.872314%)" stop-opacity="1"/>
<stop offset="0.429688" stop-color="rgb(40.934753%, 65.704346%, 87.818909%)" stop-opacity="1"/>
<stop offset="0.433594" stop-color="rgb(40.740967%, 65.473938%, 87.765503%)" stop-opacity="1"/>
<stop offset="0.4375" stop-color="rgb(40.54718%, 65.24353%, 87.713623%)" stop-opacity="1"/>
<stop offset="0.441406" stop-color="rgb(40.353394%, 65.013123%, 87.660217%)" stop-opacity="1"/>
<stop offset="0.445312" stop-color="rgb(40.161133%, 64.784241%, 87.606812%)" stop-opacity="1"/>
<stop offset="0.449219" stop-color="rgb(39.967346%, 64.553833%, 87.553406%)" stop-opacity="1"/>
<stop offset="0.453125" stop-color="rgb(39.77356%, 64.324951%, 87.5%)" stop-opacity="1"/>
<stop offset="0.457031" stop-color="rgb(39.579773%, 64.094543%, 87.446594%)" stop-opacity="1"/>
<stop offset="0.460937" stop-color="rgb(39.385986%, 63.865662%, 87.393188%)" stop-opacity="1"/>
<stop offset="0.464844" stop-color="rgb(39.1922%, 63.635254%, 87.339783%)" stop-opacity="1"/>
<stop offset="0.46875" stop-color="rgb(38.998413%, 63.406372%, 87.287903%)" stop-opacity="1"/>
<stop offset="0.472656" stop-color="rgb(38.804626%, 63.175964%, 87.234497%)" stop-opacity="1"/>
<stop offset="0.476562" stop-color="rgb(38.612366%, 62.947083%, 87.181091%)" stop-opacity="1"/>
<stop offset="0.480469" stop-color="rgb(38.418579%, 62.716675%, 87.127686%)" stop-opacity="1"/>
<stop offset="0.484375" stop-color="rgb(38.224792%, 62.486267%, 87.07428%)" stop-opacity="1"/>
<stop offset="0.488281" stop-color="rgb(38.031006%, 62.255859%, 87.020874%)" stop-opacity="1"/>
<stop offset="0.492187" stop-color="rgb(37.837219%, 62.026978%, 86.968994%)" stop-opacity="1"/>
<stop offset="0.496094" stop-color="rgb(37.643433%, 61.79657%, 86.915588%)" stop-opacity="1"/>
<stop offset="0.5" stop-color="rgb(37.449646%, 61.567688%, 86.862183%)" stop-opacity="1"/>
<stop offset="0.503906" stop-color="rgb(37.255859%, 61.33728%, 86.808777%)" stop-opacity="1"/>
<stop offset="0.507812" stop-color="rgb(37.063599%, 61.108398%, 86.755371%)" stop-opacity="1"/>
<stop offset="0.511719" stop-color="rgb(36.869812%, 60.877991%, 86.701965%)" stop-opacity="1"/>
<stop offset="0.515625" stop-color="rgb(36.676025%, 60.649109%, 86.64856%)" stop-opacity="1"/>
<stop offset="0.519531" stop-color="rgb(36.482239%, 60.418701%, 86.595154%)" stop-opacity="1"/>
<stop offset="0.523438" stop-color="rgb(36.288452%, 60.189819%, 86.543274%)" stop-opacity="1"/>
<stop offset="0.527344" stop-color="rgb(36.094666%, 59.959412%, 86.489868%)" stop-opacity="1"/>
<stop offset="0.53125" stop-color="rgb(35.900879%, 59.729004%, 86.436462%)" stop-opacity="1"/>
<stop offset="0.535156" stop-color="rgb(35.707092%, 59.498596%, 86.383057%)" stop-opacity="1"/>
<stop offset="0.539062" stop-color="rgb(35.513306%, 59.269714%, 86.329651%)" stop-opacity="1"/>
<stop offset="0.542969" stop-color="rgb(35.319519%, 59.039307%, 86.276245%)" stop-opacity="1"/>
<stop offset="0.546875" stop-color="rgb(35.127258%, 58.810425%, 86.224365%)" stop-opacity="1"/>
<stop offset="0.550781" stop-color="rgb(34.933472%, 58.580017%, 86.170959%)" stop-opacity="1"/>
<stop offset="0.554687" stop-color="rgb(34.739685%, 58.351135%, 86.117554%)" stop-opacity="1"/>
<stop offset="0.558594" stop-color="rgb(34.545898%, 58.120728%, 86.064148%)" stop-opacity="1"/>
<stop offset="0.5625" stop-color="rgb(34.352112%, 57.891846%, 86.010742%)" stop-opacity="1"/>
<stop offset="0.566406" stop-color="rgb(34.158325%, 57.661438%, 85.957336%)" stop-opacity="1"/>
<stop offset="0.570312" stop-color="rgb(33.964539%, 57.43103%, 85.903931%)" stop-opacity="1"/>
<stop offset="0.574219" stop-color="rgb(33.770752%, 57.200623%, 85.850525%)" stop-opacity="1"/>
<stop offset="0.578125" stop-color="rgb(33.578491%, 56.971741%, 85.798645%)" stop-opacity="1"/>
<stop offset="0.582031" stop-color="rgb(33.384705%, 56.741333%, 85.745239%)" stop-opacity="1"/>
<stop offset="0.585938" stop-color="rgb(33.190918%, 56.512451%, 85.691833%)" stop-opacity="1"/>
<stop offset="0.589844" stop-color="rgb(32.997131%, 56.282043%, 85.638428%)" stop-opacity="1"/>
<stop offset="0.59375" stop-color="rgb(32.803345%, 56.053162%, 85.585022%)" stop-opacity="1"/>
<stop offset="0.597656" stop-color="rgb(32.609558%, 55.822754%, 85.531616%)" stop-opacity="1"/>
<stop offset="0.601562" stop-color="rgb(32.415771%, 55.593872%, 85.479736%)" stop-opacity="1"/>
<stop offset="0.605469" stop-color="rgb(32.221985%, 55.363464%, 85.426331%)" stop-opacity="1"/>
<stop offset="0.609375" stop-color="rgb(32.029724%, 55.134583%, 85.372925%)" stop-opacity="1"/>
<stop offset="0.613281" stop-color="rgb(31.835938%, 54.904175%, 85.319519%)" stop-opacity="1"/>
<stop offset="0.617188" stop-color="rgb(31.642151%, 54.673767%, 85.266113%)" stop-opacity="1"/>
<stop offset="0.621094" stop-color="rgb(31.448364%, 54.443359%, 85.212708%)" stop-opacity="1"/>
<stop offset="0.625" stop-color="rgb(31.254578%, 54.214478%, 85.159302%)" stop-opacity="1"/>
<stop offset="0.628906" stop-color="rgb(31.060791%, 53.98407%, 85.105896%)" stop-opacity="1"/>
<stop offset="0.632812" stop-color="rgb(30.867004%, 53.755188%, 85.054016%)" stop-opacity="1"/>
<stop offset="0.636719" stop-color="rgb(30.673218%, 53.52478%, 85.00061%)" stop-opacity="1"/>
<stop offset="0.640625" stop-color="rgb(30.479431%, 53.295898%, 84.947205%)" stop-opacity="1"/>
<stop offset="0.644531" stop-color="rgb(30.285645%, 53.065491%, 84.893799%)" stop-opacity="1"/>
<stop offset="0.648437" stop-color="rgb(30.093384%, 52.836609%, 84.840393%)" stop-opacity="1"/>
<stop offset="0.652344" stop-color="rgb(29.899597%, 52.606201%, 84.786987%)" stop-opacity="1"/>
<stop offset="0.65625" stop-color="rgb(29.705811%, 52.377319%, 84.735107%)" stop-opacity="1"/>
<stop offset="0.660156" stop-color="rgb(29.512024%, 52.146912%, 84.681702%)" stop-opacity="1"/>
<stop offset="0.664062" stop-color="rgb(29.318237%, 51.916504%, 84.628296%)" stop-opacity="1"/>
<stop offset="0.667969" stop-color="rgb(29.124451%, 51.686096%, 84.57489%)" stop-opacity="1"/>
<stop offset="0.671875" stop-color="rgb(28.930664%, 51.457214%, 84.521484%)" stop-opacity="1"/>
<stop offset="0.675781" stop-color="rgb(28.736877%, 51.226807%, 84.468079%)" stop-opacity="1"/>
<stop offset="0.679688" stop-color="rgb(28.544617%, 50.997925%, 84.414673%)" stop-opacity="1"/>
<stop offset="0.683594" stop-color="rgb(28.35083%, 50.767517%, 84.361267%)" stop-opacity="1"/>
<stop offset="0.6875" stop-color="rgb(28.157043%, 50.538635%, 84.309387%)" stop-opacity="1"/>
<stop offset="0.691406" stop-color="rgb(27.963257%, 50.308228%, 84.255981%)" stop-opacity="1"/>
<stop offset="0.695312" stop-color="rgb(27.76947%, 50.079346%, 84.202576%)" stop-opacity="1"/>
<stop offset="0.699219" stop-color="rgb(27.575684%, 49.848938%, 84.14917%)" stop-opacity="1"/>
<stop offset="0.703125" stop-color="rgb(27.381897%, 49.61853%, 84.095764%)" stop-opacity="1"/>
<stop offset="0.707031" stop-color="rgb(27.18811%, 49.388123%, 84.042358%)" stop-opacity="1"/>
<stop offset="0.710938" stop-color="rgb(26.99585%, 49.159241%, 83.990479%)" stop-opacity="1"/>
<stop offset="0.714844" stop-color="rgb(26.802063%, 48.928833%, 83.937073%)" stop-opacity="1"/>
<stop offset="0.71875" stop-color="rgb(26.608276%, 48.699951%, 83.883667%)" stop-opacity="1"/>
<stop offset="0.722656" stop-color="rgb(26.41449%, 48.469543%, 83.830261%)" stop-opacity="1"/>
<stop offset="0.726562" stop-color="rgb(26.220703%, 48.240662%, 83.776855%)" stop-opacity="1"/>
<stop offset="0.730469" stop-color="rgb(26.026917%, 48.010254%, 83.72345%)" stop-opacity="1"/>
<stop offset="0.734375" stop-color="rgb(25.83313%, 47.781372%, 83.670044%)" stop-opacity="1"/>
<stop offset="0.738281" stop-color="rgb(25.639343%, 47.550964%, 83.616638%)" stop-opacity="1"/>
<stop offset="0.742187" stop-color="rgb(25.445557%, 47.322083%, 83.564758%)" stop-opacity="1"/>
<stop offset="0.746094" stop-color="rgb(25.25177%, 47.091675%, 83.511353%)" stop-opacity="1"/>
<stop offset="0.75" stop-color="rgb(25.059509%, 46.861267%, 83.457947%)" stop-opacity="1"/>
<stop offset="0.753906" stop-color="rgb(24.865723%, 46.630859%, 83.404541%)" stop-opacity="1"/>
<stop offset="0.757812" stop-color="rgb(24.671936%, 46.401978%, 83.351135%)" stop-opacity="1"/>
<stop offset="0.761719" stop-color="rgb(24.478149%, 46.17157%, 83.297729%)" stop-opacity="1"/>
<stop offset="0.765625" stop-color="rgb(24.284363%, 45.942688%, 83.244324%)" stop-opacity="1"/>
<stop offset="0.769531" stop-color="rgb(24.090576%, 45.71228%, 83.190918%)" stop-opacity="1"/>
<stop offset="0.773438" stop-color="rgb(23.89679%, 45.483398%, 83.139038%)" stop-opacity="1"/>
<stop offset="0.777344" stop-color="rgb(23.703003%, 45.252991%, 83.085632%)" stop-opacity="1"/>
<stop offset="0.78125" stop-color="rgb(23.510742%, 45.024109%, 83.032227%)" stop-opacity="1"/>
<stop offset="0.785156" stop-color="rgb(23.316956%, 44.793701%, 82.978821%)" stop-opacity="1"/>
<stop offset="0.789062" stop-color="rgb(23.123169%, 44.564819%, 82.925415%)" stop-opacity="1"/>
<stop offset="0.792969" stop-color="rgb(22.929382%, 44.334412%, 82.872009%)" stop-opacity="1"/>
<stop offset="0.796875" stop-color="rgb(22.735596%, 44.104004%, 82.820129%)" stop-opacity="1"/>
<stop offset="0.800781" stop-color="rgb(22.541809%, 43.873596%, 82.766724%)" stop-opacity="1"/>
<stop offset="0.804687" stop-color="rgb(22.348022%, 43.644714%, 82.713318%)" stop-opacity="1"/>
<stop offset="0.808594" stop-color="rgb(22.154236%, 43.414307%, 82.659912%)" stop-opacity="1"/>
<stop offset="0.8125" stop-color="rgb(21.961975%, 43.185425%, 82.606506%)" stop-opacity="1"/>
<stop offset="0.816406" stop-color="rgb(21.768188%, 42.955017%, 82.553101%)" stop-opacity="1"/>
<stop offset="0.820312" stop-color="rgb(21.574402%, 42.726135%, 82.499695%)" stop-opacity="1"/>
<stop offset="0.824219" stop-color="rgb(21.380615%, 42.495728%, 82.446289%)" stop-opacity="1"/>
<stop offset="0.828125" stop-color="rgb(21.186829%, 42.266846%, 82.394409%)" stop-opacity="1"/>
<stop offset="0.832031" stop-color="rgb(20.993042%, 42.036438%, 82.341003%)" stop-opacity="1"/>
<stop offset="0.835938" stop-color="rgb(20.799255%, 41.80603%, 82.287598%)" stop-opacity="1"/>
<stop offset="0.839844" stop-color="rgb(20.605469%, 41.575623%, 82.234192%)" stop-opacity="1"/>
<stop offset="0.84375" stop-color="rgb(20.411682%, 41.346741%, 82.180786%)" stop-opacity="1"/>
<stop offset="0.847656" stop-color="rgb(20.217896%, 41.116333%, 82.12738%)" stop-opacity="1"/>
<stop offset="0.851563" stop-color="rgb(20.025635%, 40.887451%, 82.0755%)" stop-opacity="1"/>
<stop offset="0.855469" stop-color="rgb(19.831848%, 40.657043%, 82.022095%)" stop-opacity="1"/>
<stop offset="0.859375" stop-color="rgb(19.638062%, 40.428162%, 81.968689%)" stop-opacity="1"/>
<stop offset="0.875" stop-color="rgb(19.622803%, 40.409851%, 81.964111%)" stop-opacity="1"/>
<stop offset="1" stop-color="rgb(19.607544%, 40.391541%, 81.959534%)" stop-opacity="1"/>
</linearGradient>
</defs>
<g clip-path="url(#clip-0)">
<path fill-rule="nonzero" fill="url(#linear-pattern-0)" d="M 1936.507812 -1936.5 L -1936.5 1936.492188 L 1936.492188 5809.5 L 5809.5 1936.507812 Z M 1936.507812 -1936.5 "/>
</g>
<path fill-rule="evenodd" fill="rgb(100%, 100%, 99.609375%)" fill-opacity="1" d="M 2421.5 546.199219 C 2189.300781 546.199219 1956.898438 634.101562 1780 810.199219 C 1426.398438 1163.800781 1426.398438 1739.300781 1780 2092.898438 C 2133.601562 2446.5 2709.101562 2446.5 3062.898438 2092.898438 C 3414.601562 1739.300781 3414.601562 1163.800781 3062.898438 810 C 2886.101562 634.101562 2653.699219 546.199219 2421.5 546.199219 Z M 2421.5 2419.699219 C 2295.898438 2419.699219 2173.601562 2395.898438 2057.699219 2348.601562 C 1937.800781 2299.800781 1830 2228.101562 1737.300781 2135.699219 C 1644.601562 2043.199219 1573.199219 1935.398438 1524.398438 1815.300781 C 1477.300781 1699.398438 1453.300781 1577 1453.300781 1451.5 C 1453.300781 1326 1477.101562 1203.601562 1524.398438 1087.699219 C 1573.199219 967.800781 1644.898438 860 1737.300781 767.300781 C 1830 675.199219 1937.800781 603.898438 2057.699219 555.300781 C 2173.601562 508.398438 2296 484.601562 2421.5 484.601562 C 2547 484.601562 2669.398438 508.398438 2785.300781 555.300781 C 2905.199219 603.898438 3013 675.199219 3105.699219 767.300781 C 3105.699219 767.300781 3105.699219 767.300781 3105.898438 767.5 C 3198 860 3269.300781 967.800781 3317.898438 1087.898438 C 3364.800781 1203.800781 3388.601562 1326.199219 3388.601562 1451.699219 C 3388.601562 1577.199219 3364.800781 1699.601562 3317.898438 1815.5 C 3269.300781 1935.398438 3198 2043.199219 3105.898438 2135.898438 C 3013.199219 2228.601562 2905.398438 2300.199219 2785.5 2349 C 2669.398438 2395.800781 2547 2419.699219 2421.5 2419.699219 "/>
<path fill-rule="evenodd" fill="rgb(100%, 100%, 99.609375%)" fill-opacity="1" d="M 2421.5 750.601562 C 2241.800781 750.601562 2062.398438 818.898438 1925.699219 955.601562 C 1792.398438 1088.199219 1719 1264.199219 1719 1451.398438 C 1719 1638.601562 1792.398438 1814.699219 1925.699219 1947.101562 C 1925.699219 1947.101562 1925.699219 1947.101562 1925.898438 1947.300781 C 2058.300781 2080.601562 2234.300781 2154 2421.601562 2154 C 2608.898438 2154 2784.898438 2080.601562 2917.300781 1947.300781 C 3190.800781 1673.800781 3190.800781 1229.101562 2917.300781 955.601562 C 2780.601562 818.800781 2601.101562 750.601562 2421.5 750.601562 Z M 2421.5 2214.5 C 2322.601562 2214.5 2226.101562 2195.601562 2134.800781 2158.300781 C 2040.199219 2119.699219 1955.5 2063.199219 1882.898438 1990 C 1809.699219 1917.398438 1753.199219 1832.699219 1714.601562 1738.101562 C 1677.300781 1646.800781 1658.398438 1550.300781 1658.398438 1451.398438 C 1658.398438 1352.5 1677.300781 1256 1714.601562 1164.699219 C 1753.199219 1070.101562 1809.898438 985.398438 1882.898438 912.800781 C 1955.5 840.199219 2040.199219 783.800781 2134.800781 745.601562 C 2226.101562 708.5 2322.601562 689.800781 2421.5 689.800781 C 2520.398438 689.800781 2616.898438 708.5 2708.199219 745.601562 C 2802.800781 784 2887.5 840.199219 2960.101562 913 C 3032.699219 985.601562 3089.101562 1070.5 3127.5 1164.898438 C 3164.601562 1256.199219 3183.300781 1352.699219 3183.300781 1451.601562 C 3183.300781 1550.5 3164.601562 1647 3127.5 1738.300781 C 3089.101562 1832.898438 3032.898438 1917.601562 2960.101562 1990.199219 C 2887.5 2063.199219 2802.800781 2119.898438 2708.199219 2158.5 C 2616.800781 2195.601562 2520.398438 2214.5 2421.5 2214.5 "/>
<path fill-rule="evenodd" fill="rgb(100%, 100%, 99.609375%)" fill-opacity="1" d="M 1492 2180.398438 C 1484.199219 2180.398438 1476.5 2177.398438 1470.601562 2171.5 C 1458.898438 2159.800781 1458.898438 2140.5 1470.601562 2128.800781 L 1631.300781 1968.101562 C 1643 1956.398438 1662.300781 1956.398438 1674 1968.101562 C 1685.699219 1979.800781 1685.699219 1999.101562 1674 2010.800781 L 1513.300781 2171.5 C 1507.5 2177.398438 1499.699219 2180.398438 1492 2180.398438 Z M 1722.699219 2411.199219 C 1714.898438 2411.199219 1707.199219 2408.199219 1701.300781 2402.300781 C 1689.601562 2390.601562 1689.601562 2371.300781 1701.300781 2359.601562 L 1862 2198.898438 C 1873.699219 2187.199219 1893 2187.199219 1904.699219 2198.898438 C 1916.398438 2210.601562 1916.398438 2229.898438 1904.699219 2241.601562 L 1744 2402.300781 C 1738.199219 2408.101562 1730.5 2411.199219 1722.699219 2411.199219 "/>
<path fill-rule="evenodd" fill="rgb(100%, 100%, 99.609375%)" fill-opacity="1" d="M 632.101562 3244.398438 C 745 3355.398438 928.601562 3355.398438 1041.5 3244.398438 L 1701.300781 2584.601562 C 1750.101562 2534.300781 1750.101562 2452.398438 1701.300781 2401.898438 L 1471 2171.601562 C 1420.699219 2122.800781 1338.800781 2122.800781 1288.300781 2171.601562 L 628.5 2831.398438 C 517.5 2944.300781 517.5 3127.898438 628.5 3240.800781 Z M 836.699219 3388.5 C 743.300781 3388.5 655.5 3352.800781 589.5 3287.5 L 585.300781 3283.300781 C 520.199219 3217.300781 484.300781 3129.398438 484.300781 3036.101562 C 484.300781 2942.898438 520 2854.898438 585.300781 2788.898438 L 1245.5 2128.699219 C 1245.699219 2128.5 1245.699219 2128.5 1245.898438 2128.300781 C 1281.800781 2093.5 1329.101562 2074.398438 1379.398438 2074.398438 C 1429.699219 2074.398438 1477.199219 2093.5 1512.898438 2128.300781 C 1513.101562 2128.5 1513.101562 2128.5 1513.300781 2128.699219 L 1744 2359.398438 C 1744.199219 2359.601562 1744.199219 2359.601562 1744.398438 2359.800781 C 1779.199219 2395.699219 1798.300781 2443 1798.300781 2493.300781 C 1798.300781 2543.601562 1779.199219 2591.101562 1744.398438 2626.800781 C 1744.199219 2627 1744.199219 2627 1744 2627.199219 L 1083.800781 3287.398438 C 1017.898438 3352.601562 930.101562 3388.5 836.699219 3388.5 "/>
<path fill-rule="evenodd" fill="rgb(100%, 100%, 99.609375%)" fill-opacity="1" d="M 838.800781 2897.898438 C 804.398438 2897.898438 770.199219 2911.101562 743.699219 2937.601562 C 717.199219 2964.101562 702.699219 2998.898438 702.898438 3035.199219 C 703.101562 3070.601562 717.5 3104 743.398438 3129 C 743.601562 3129.199219 743.800781 3129.398438 744 3129.601562 C 769.199219 3155.5 802.398438 3169.898438 837.800781 3170.101562 C 838.199219 3170.101562 838.398438 3170.101562 838.699219 3170.101562 C 874.601562 3170.101562 908.898438 3155.699219 935.300781 3129.300781 C 988.300781 3076.300781 988.101562 2992.398438 935.300781 2937.5 C 908 2911 873.398438 2897.898438 838.800781 2897.898438 Z M 838.800781 3230.601562 C 838.199219 3230.601562 837.898438 3230.601562 837.300781 3230.601562 C 785.699219 3230.199219 737.300781 3209.398438 700.800781 3172.199219 C 663.398438 3135.699219 642.699219 3087.300781 642.398438 3035.699219 C 642 2983.101562 662.800781 2933 700.800781 2895 C 737.699219 2858.101562 786.699219 2837.898438 838.699219 2837.898438 C 890.699219 2837.898438 940.101562 2858.101562 977.699219 2894.601562 C 977.898438 2894.800781 978.101562 2895 978.300781 2895.199219 C 1015 2932.800781 1035 2982.199219 1035 3034.199219 C 1035 3086.398438 1014.800781 3135.398438 977.898438 3172.101562 C 940.398438 3209.800781 891 3230.601562 838.800781 3230.601562 "/>
<path fill-rule="evenodd" fill="rgb(100%, 100%, 99.609375%)" fill-opacity="1" d="M 2897.101562 2038.601562 C 2883.300781 2038.601562 2871 2029.101562 2867.601562 2015.300781 L 2814.601562 1790.300781 C 2812.699219 1782 2808.898438 1773.300781 2786.199219 1764.398438 L 2535.101562 1673.601562 C 2519.398438 1667.898438 2511.300781 1650.5 2516.898438 1634.800781 C 2522.601562 1619.101562 2540 1611 2555.699219 1616.601562 L 2807.199219 1707.398438 C 2807.398438 1707.398438 2807.601562 1707.601562 2807.800781 1707.601562 C 2821.398438 1712.898438 2862.601562 1728.800781 2873.601562 1776.199219 L 2926.601562 2001.101562 C 2930.398438 2017.398438 2920.398438 2033.601562 2904.101562 2037.398438 C 2901.601562 2038.398438 2899.398438 2038.601562 2897.101562 2038.601562 "/>
<path fill-rule="evenodd" fill="rgb(100%, 100%, 99.609375%)" fill-opacity="1" d="M 2545.300781 2203.101562 C 2528.699219 2203.101562 2515 2189.5 2515 2172.800781 L 2515 1645.199219 C 2515 1628.601562 2528.601562 1614.898438 2545.300781 1614.898438 C 2561.898438 1614.898438 2575.601562 1628.5 2575.601562 1645.199219 L 2575.601562 2172.800781 C 2575.601562 2189.5 2562 2203.101562 2545.300781 2203.101562 "/>
<path fill-rule="evenodd" fill="rgb(100%, 100%, 99.609375%)" fill-opacity="1" d="M 2297.601562 1675.5 C 2281 1675.5 2267.300781 1661.898438 2267.300781 1645.199219 L 2267.300781 1567.699219 C 2267.300781 1551.101562 2280.898438 1537.398438 2297.601562 1537.398438 C 2314.199219 1537.398438 2327.898438 1551 2327.898438 1567.699219 L 2327.898438 1645.199219 C 2327.898438 1661.898438 2314.199219 1675.5 2297.601562 1675.5 Z M 2545.300781 1675.5 C 2528.699219 1675.5 2515 1661.898438 2515 1645.199219 L 2515 1567.699219 C 2515 1551.101562 2528.601562 1537.398438 2545.300781 1537.398438 C 2561.898438 1537.398438 2575.601562 1551 2575.601562 1567.699219 L 2575.601562 1645.199219 C 2575.601562 1661.898438 2562 1675.5 2545.300781 1675.5 "/>
<path fill-rule="evenodd" fill="rgb(100%, 100%, 99.609375%)" fill-opacity="1" d="M 2227.601562 1278.398438 L 2227.601562 1374.800781 C 2227.601562 1442.5 2260.101562 1505.300781 2314.800781 1542.699219 C 2348.101562 1565.601562 2383.800781 1577.101562 2420.5 1577.101562 C 2526.800781 1577.101562 2613.398438 1486.300781 2613.398438 1374.800781 L 2613.398438 1265.5 C 2579 1257 2549.699219 1241.699219 2528.101562 1221.398438 C 2489.898438 1259.800781 2423.5 1282.101562 2377 1282.101562 C 2326.699219 1282.101562 2305.699219 1275.898438 2282.800781 1264.5 C 2265.300781 1271.199219 2246.5 1275.898438 2227.601562 1278.398438 Z M 2420.5 1637.699219 C 2371.300781 1637.699219 2324.101562 1622.601562 2280.601562 1592.699219 C 2209.5 1543.898438 2167.101562 1462.398438 2167.101562 1374.800781 L 2167.101562 1250 C 2167.101562 1233.398438 2180.699219 1219.699219 2197.398438 1219.699219 C 2222.699219 1219.699219 2249.199219 1214 2271.699219 1203.601562 C 2280.398438 1199.601562 2290.398438 1200 2298.699219 1204.398438 L 2299.800781 1205 C 2321.5 1216.699219 2330.601562 1221.601562 2377.101562 1221.601562 C 2425.300781 1221.601562 2489.398438 1189.101562 2497.398438 1160.5 C 2500.800781 1148.199219 2511.601562 1139.5 2524.300781 1138.601562 C 2537 1137.699219 2548.898438 1144.699219 2554.199219 1156.398438 C 2566.5 1183.601562 2602.398438 1204.398438 2648 1210.699219 C 2662.898438 1212.800781 2674.101562 1225.601562 2674.101562 1240.601562 L 2674.101562 1374.898438 C 2673.898438 1519.699219 2560.300781 1637.699219 2420.5 1637.699219 "/>
<path fill-rule="evenodd" fill="rgb(100%, 100%, 99.609375%)" fill-opacity="1" d="M 2702.300781 1732.300781 C 2685.699219 1732.300781 2672 1718.699219 2672 1702 L 2672 1238.699219 C 2672 1100.101562 2559.101562 987.199219 2420.5 987.199219 C 2284.199219 987.199219 2169 1102.398438 2169 1238.699219 L 2169 1702 C 2169 1718.601562 2155.398438 1732.300781 2138.699219 1732.300781 C 2122.101562 1732.300781 2108.398438 1718.699219 2108.398438 1702 L 2108.398438 1238.699219 C 2108.398438 1155.898438 2141.101562 1077.601562 2200.699219 1018.199219 C 2260.101562 959.199219 2338 926.699219 2420.398438 926.699219 C 2592.5 926.699219 2732.398438 1066.601562 2732.398438 1238.699219 L 2732.398438 1702 C 2732.601562 1718.601562 2718.898438 1732.300781 2702.300781 1732.300781 "/>
<path fill-rule="evenodd" fill="rgb(100%, 100%, 99.609375%)" fill-opacity="1" d="M 1945.898438 2038.601562 C 1943.601562 2038.601562 1941.398438 2038.398438 1938.898438 2037.800781 C 1922.601562 2034 1912.601562 2017.800781 1916.398438 2001.5 L 1969.398438 1776.5 C 1980.398438 1729 2021.601562 1713.101562 2035.199219 1707.898438 C 2035.398438 1707.898438 2035.601562 1707.699219 2035.800781 1707.699219 L 2287.300781 1616.898438 C 2303 1611.199219 2320.398438 1619.398438 2326.101562 1635.101562 C 2331.800781 1650.800781 2323.601562 1668.199219 2307.898438 1673.898438 L 2056.800781 1764.5 C 2034.101562 1773.398438 2030.300781 1782.101562 2028.398438 1790.199219 L 1975.398438 2015.398438 C 1972 2029.199219 1959.699219 2038.601562 1945.898438 2038.601562 "/>
<path fill-rule="evenodd" fill="rgb(100%, 100%, 99.609375%)" fill-opacity="1" d="M 2297.601562 2203.101562 C 2281 2203.101562 2267.300781 2189.5 2267.300781 2172.800781 L 2267.300781 1645.199219 C 2267.300781 1628.601562 2280.898438 1614.898438 2297.601562 1614.898438 C 2314.199219 1614.898438 2327.898438 1628.5 2327.898438 1645.199219 L 2327.898438 2172.800781 C 2327.898438 2189.5 2314.199219 2203.101562 2297.601562 2203.101562 "/>
<path fill-rule="evenodd" fill="rgb(100%, 100%, 99.609375%)" fill-opacity="1" d="M 2053.601562 2116.101562 C 2037 2116.101562 2023.300781 2102.5 2023.300781 2085.800781 L 2023.300781 2021.5 C 2023.300781 2004.898438 2036.898438 1991.199219 2053.601562 1991.199219 C 2070.199219 1991.199219 2083.898438 2004.800781 2083.898438 2021.5 L 2083.898438 2085.800781 C 2083.898438 2102.5 2070.300781 2116.101562 2053.601562 2116.101562 "/>
<path fill-rule="evenodd" fill="rgb(100%, 100%, 99.609375%)" fill-opacity="1" d="M 2789.300781 2116.101562 C 2772.699219 2116.101562 2759 2102.5 2759 2085.800781 L 2759 2021.5 C 2759 2004.898438 2772.601562 1991.199219 2789.300781 1991.199219 C 2805.898438 1991.199219 2819.601562 2004.800781 2819.601562 2021.5 L 2819.601562 2085.800781 C 2819.5 2102.5 2805.898438 2116.101562 2789.300781 2116.101562 "/>
<path fill-rule="evenodd" fill="rgb(100%, 100%, 99.609375%)" fill-opacity="1" d="M 2420.5 1828.699219 C 2411.199219 1828.699219 2402.5 1824.5 2396.898438 1817.398438 L 2274 1664.199219 C 2263.601562 1651.199219 2265.699219 1632.101562 2278.699219 1621.699219 C 2291.699219 1611.300781 2310.800781 1613.398438 2321.199219 1626.398438 L 2420.699219 1750.5 L 2521.898438 1626.300781 C 2532.5 1613.300781 2551.601562 1611.398438 2564.398438 1622 C 2577.398438 1632.601562 2579.300781 1651.699219 2568.699219 1664.5 L 2444 1817.5 C 2438.300781 1824.5 2429.601562 1828.699219 2420.5 1828.699219 "/>
<path fill-rule="evenodd" fill="rgb(100%, 100%, 99.609375%)" fill-opacity="1" d="M 2770.398438 1910 L 2636.101562 1910 C 2619.5 1910 2605.800781 1896.398438 2605.800781 1879.699219 C 2605.800781 1863.101562 2619.398438 1849.398438 2636.101562 1849.398438 L 2770.398438 1849.398438 C 2787 1849.398438 2800.699219 1863 2800.699219 1879.699219 C 2800.601562 1896.398438 2787 1910 2770.398438 1910 "/>
<path fill-rule="evenodd" fill="rgb(100%, 100%, 99.609375%)" fill-opacity="1" d="M 2206.800781 1910 L 2072.5 1910 C 2055.898438 1910 2042.199219 1896.398438 2042.199219 1879.699219 C 2042.199219 1863.101562 2055.800781 1849.398438 2072.5 1849.398438 L 2206.800781 1849.398438 C 2223.398438 1849.398438 2237.101562 1863 2237.101562 1879.699219 C 2237.101562 1896.398438 2223.5 1910 2206.800781 1910 "/>
<path fill-rule="evenodd" fill="rgb(100%, 100%, 99.609375%)" fill-opacity="1" d="M 1433.398438 2925.5 C 1424.699219 2925.5 1416.199219 2921.898438 1410.101562 2914.699219 L 994.101562 2419.199219 C 983.300781 2406.300781 985 2387.199219 997.898438 2376.699219 C 1010.800781 2366.101562 1029.898438 2367.601562 1040.398438 2380.5 L 1456.398438 2876 C 1467.199219 2888.898438 1465.5 2908 1452.601562 2918.5 C 1447.199219 2923.300781 1440.199219 2925.5 1433.398438 2925.5 "/>
</svg>
